<?xml version="1.0" encoding="UTF-8"?>
<svg version="1.1" viewBox="0 0 2047 2048" width="2047" height="2048" xmlns="http://www.w3.org/2000/svg">
<path transform="translate(406,805)" d="m0 0 5 3 14 12 6 4 18 14 14 10 16 12 28 20 10 7 34 24 39 27 14 9 11 7 23 14 20 12 21 12 17 9 21 9 18 6 16 4 21 3 26 2h69l42-4 62-8 70-10 99-15 57-9 70-11 72-12 92-16 25-5 37-7 36-8 28-7 25-8 18-7 16-8 11-7 4 1 10 7 4 8 7 13 2 12 1 17v86l-3 27-3 10-6 10-4 5-5 5-14 11-31 13-33 11-40 10-27 6-28 6-62 12-32 6-51 9-70 12-55 9-37 6-98 15-62 9-45 6-51 6-39 3h-66l-32-3-25-4-24-6-30-11-27-13-22-12-28-17-23-15-19-13-16-11-2-1v-2l-5-2-10-7-28-20-40-30-14-11-11-9-14-12-10-10-7-5-12-15-9-14-6-15-3-16v-86l1-30 3-13 6-10 9-10z" fill="#0337FB"/>
<path transform="translate(406,805)" d="m0 0 5 3 14 12 6 4 18 14 14 10 16 12 28 20 10 7 34 24 39 27 14 9 11 7 23 14 20 12 21 12 17 9 21 9 18 6 16 4 21 3 26 2h69l42-4 62-8 70-10 99-15 57-9 70-11 72-12 92-16 25-5 37-7 36-8 28-7 25-8 18-7 16-8 11-7 4 1 10 7 4 8 7 13 2 12 1 17v86l-3 27-3 10-6 10-4 5-5 5-14 11-31 13-33 11-40 10-27 6-28 6-62 12-32 6-51 9-70 12-55 9-37 6-98 15-62 9-45 6-51 6-39 3h-66l-32-3-25-4-24-6-30-11-27-13-22-12-28-17-23-15-19-13-16-11-2-1v-2l-5-2-10-7-28-20-40-30-14-11-11-9-14-12-10-10-7-5-12-15-9-14-6-15-3-16v-86l1-30 3-13 6-10 9-10zm-3 23-5 5-3 11-1 11v86l1 28 3 10 6 10 9 11 19 19 8 7 13 11 11 9 18 14 16 12 19 14 14 10 34 24 16 11 27 18 14 9 16 10 19 11 25 13 14 6 15 6 20 6 24 5 23 3 35 2h32l38-2 36-4 41-5 84-12 137-21 30-5 43-7 40-7 47-8 97-18 45-9 36-8 31-8 22-7 25-10 16-9 9-7v-2l3-1v-2h2l7-14 1-8 1-28v-97l-3-11-4-5-8 1-34 13-29 9-29 7-37 8-43 8-20 4-85 15-132 22-76 12-79 12-90 13-53 7-30 3-15 1h-87l-29-3-22-5-24-8-25-11-19-10-21-12-23-14-45-30-26-18-18-13-16-11h-2v-2l-9-6-10-7h-2v-2l-9-6-18-13-11-8-17-12-18-13h-2v-2l-9-6z" fill="#000001"/>
<path transform="translate(426,865)" d="m0 0 5 2 16 12 5 3v2l4 2 8 5v2l5 2 12 9 19 14 17 12 28 20 16 11 23 16 12 8 20 13 21 13 24 14 17 9 16 7 21 8 21 6 24 4 19 2 32 1h20l41-1 38-3 50-6 66-9 102-15 76-12 125-21 50-9 84-16 54-11 32-7 35-9 17-6h5v2l-10 5-16 5-25 7-73 16-71 14-54 10-80 14-79 13-76 12-104 15-69 9-54 6-41 3h-65l-28-3-25-5-19-5-23-8-24-11-21-11-22-13-14-9-21-14-19-13-20-14-17-12-28-20-2-1v-2l-5-2-16-12-18-13-26-20-7-5v-2l-4-2-4-4z"/>
<path transform="translate(673,1081)" d="m0 0 2 1 2 9v58l-2 8-2-3-2-14-1-12v-31l2-14z"/>
</svg>
