<?xml version="1.0" encoding="UTF-8"?>
<svg version="1.1" viewBox="0 0 2047 2048" width="2731" height="2731" xmlns="http://www.w3.org/2000/svg">
<path transform="translate(1074,491)" opacity="0.999" d="m0 0h87l21 2 32 7 26 8 27 11 35 16 37 18 23 11 35 17 140 68 26 13 19 10 18 11 16 12 10 9 10 10 7 11 5 11 3 11 2 19v92l-2 17-4 10-5 7 10 20 2 10 1 28v73l-2 24-4 16-5 9-5 7 5 13 2 4v309l-1 22-2 13-5 17-6 14-9 14-9 11-8 8-13 10-13 8-15 8-25 10-21 7-30 8-50 10-119 22-91 16-176 30-75 12-51 7-40 4-16 1h-41l-35-3-28-5-22-6-28-10-30-14-26-15-22-14-36-24-16-11-17-12-36-26-21-16-16-12-16-13-14-11-14-12-11-9-23-23-11-15-8-14-6-15-6-21-2-23-2-52-1-39-1-61v-146l2-16 3-6 7-6-2-6-6-9-5-11-3-9-2-12v-87l1-28 2-11 7-14 3-3-1-6-9-14-4-13-1-9v-110l3-16 5-14 8-15 11-13 11-9 15-9 18-8 22-7 24-6 36-6 65-9 288-37 117-16 54-7zm28 17-36 2-79 10-158 21-124 16-133 17-61 9-30 6-24 7-16 6-17 9-12 11-7 8-8 16-3 10-1 10-1 28v68l2 17 4 12 7 11 10 10 14 11 18 14 18 13 19 14 17 12 18 13 63 44 26 17 24 15 20 12 19 11 24 13 23 10 18 6 24 5 30 3 32 1h33l40-3 65-8 91-13 112-17 125-20 83-14 77-14 65-13 34-8 34-10 24-10 19-10 6-7 3-8 1-7 1-21v-71l-2-18-4-13-6-12-9-11-10-9-15-10-17-10-26-14-44-22-23-11-83-40-35-17-23-11-33-16-28-13-32-14-27-10-21-6-21-4-17-2-21-1zm-698 512-3 7-1 10v103l1 30 2 17 4 11 7 9 16 16 11 9 11 10 10 8 16 13 16 12 18 14 38 28 17 12 20 14 33 22 22 14 22 13 26 14 26 11 22 7 23 5 24 3 41 2h32l36-2 54-6 80-11 88-13 114-18 78-13 66-12 87-17 54-12 37-10 25-9 27-13 11-8 7-7 4-8 2-8 1-17v-111l-1-30-1-13-2-3-9 2-23 10-22 8-36 10-43 10-95 19-89 16-138 23-104 16-76 11-61 8-36 4-46 3h-44l-29-2-30-4-26-6-27-9-25-11-27-14-28-17-19-12-24-16-16-11-20-14-18-13-14-10-19-14-26-20-16-13-11-9-15-14-5-4zm-1 192-1 2v33l2 64 2 30 3 18 4 13 8 17 8 11 12 14 16 16 8 7 15 13 17 14 13 10 18 14 19 14 36 26 23 16 16 11 24 16 19 12 24 14 23 12 26 11 25 8 25 6 17 2 21 1h61l32-2 71-11 104-17 83-14 74-13 81-14 99-18 55-11 30-8 28-10 25-12 11-7 13-10 12-12 10-15 6-14 4-15 2-15 1-17 1-35v-68l-2-1-15 10-23 11-27 10-30 9-44 11-68 14-75 14-80 14-90 15-84 13-81 12-83 11-41 4-39 2h-27l-33-2-29-4-26-6-30-10-24-11-17-9-25-15-22-14-37-25-20-14-18-13-19-14-16-12-13-10-18-14-17-14-13-11-10-9-8-7-11-11-7-8z" fill="#0337FB"/>
<path transform="translate(1074,491)" d="m0 0h87l21 2 32 7 26 8 27 11 35 16 37 18 23 11 35 17 140 68 26 13 19 10 18 11 16 12 10 9 10 10 7 11 5 11 3 11 2 19v92l-2 17-4 10-5 7 10 20 2 10 1 28v73l-2 24-4 16-5 9-5 7 5 13 2 4v309l-1 22-2 13-5 17-6 14-9 14-9 11-8 8-13 10-13 8-15 8-25 10-21 7-30 8-50 10-119 22-91 16-176 30-75 12-51 7-40 4-16 1h-41l-35-3-28-5-22-6-28-10-30-14-26-15-22-14-36-24-16-11-17-12-36-26-21-16-16-12-16-13-14-11-14-12-11-9-23-23-11-15-8-14-6-15-6-21-2-23-2-52-1-39-1-61v-146l2-16 3-6 7-6-2-6-6-9-5-11-3-9-2-12v-87l1-28 2-11 7-14 3-3-1-6-9-14-4-13-1-9v-110l3-16 5-14 8-15 11-13 11-9 15-9 18-8 22-7 24-6 36-6 65-9 288-37 117-16 54-7zm28 17-36 2-79 10-158 21-124 16-133 17-61 9-30 6-24 7-16 6-17 9-12 11-7 8-8 16-3 10-1 10-1 28v68l2 17 4 12 7 11 10 10 14 11 18 14 18 13 19 14 17 12 18 13 63 44 26 17 24 15 20 12 19 11 24 13 23 10 18 6 24 5 30 3 32 1h33l40-3 65-8 91-13 112-17 125-20 83-14 77-14 65-13 34-8 34-10 24-10 19-10 6-7 3-8 1-7 1-21v-71l-2-18-4-13-6-12-9-11-10-9-15-10-17-10-26-14-44-22-23-11-83-40-35-17-23-11-33-16-28-13-32-14-27-10-21-6-21-4-17-2-21-1zm-699 319-5 6-3 11-1 10v96l1 18 2 9 7 12 13 15 10 10 8 7 15 13 11 9 14 11 18 14 18 13 19 14 40 28 54 36 20 12 21 12 29 14 25 9 23 6 32 5 24 2 23 1h16l38-2 41-4 55-7 103-15 103-16 144-24 99-18 70-14 43-10 29-8 25-9 17-8 12-8 10-9 6-9 2-6 1-8 1-28v-95l-2-10-5-8-7 1-37 14-30 9-28 7-59 12-64 12-110 19-92 15-96 15-114 17-66 9-37 4-33 2h-61l-30-2-25-4-21-6-27-11-34-17-28-17-18-11-37-25-16-11-20-14-34-24-36-26-17-12-18-13-19-14-9-6zm1 193-3 7-1 10v103l1 30 2 17 4 11 7 9 16 16 11 9 11 10 10 8 16 13 16 12 18 14 38 28 17 12 20 14 33 22 22 14 22 13 26 14 26 11 22 7 23 5 24 3 41 2h32l36-2 54-6 80-11 88-13 114-18 78-13 66-12 87-17 54-12 37-10 25-9 27-13 11-8 7-7 4-8 2-8 1-17v-111l-1-30-1-13-2-3-9 2-23 10-22 8-36 10-43 10-95 19-89 16-138 23-104 16-76 11-61 8-36 4-46 3h-44l-29-2-30-4-26-6-27-9-25-11-27-14-28-17-19-12-24-16-16-11-20-14-18-13-14-10-19-14-26-20-16-13-11-9-15-14-5-4zm-1 192-1 2v33l2 64 2 30 3 18 4 13 8 17 8 11 12 14 16 16 8 7 15 13 17 14 13 10 18 14 19 14 36 26 23 16 16 11 24 16 19 12 24 14 23 12 26 11 25 8 25 6 17 2 21 1h61l32-2 71-11 104-17 83-14 74-13 81-14 99-18 55-11 30-8 28-10 25-12 11-7 13-10 12-12 10-15 6-14 4-15 2-15 1-17 1-35v-68l-2-1-15 10-23 11-27 10-30 9-44 11-68 14-75 14-80 14-90 15-84 13-81 12-83 11-41 4-39 2h-27l-33-2-29-4-26-6-30-10-24-11-17-9-25-15-22-14-37-25-20-14-18-13-19-14-16-12-13-10-18-14-17-14-13-11-10-9-8-7-11-11-7-8z" fill="#000001"/>
<path transform="translate(434,642)" d="m0 0 6 1 11 7 13 10 20 14 16 11 18 12 20 13 19 12 26 16 29 17 23 13 26 14 28 14 20 8 21 6 24 5 23 3 28 2h43l40-3 81-9 112-14 229-32 102-16 69-12 70-13 12-1 2 1-1 4-12 5-24 7-48 11-56 11-70 12-92 14-140 20-111 15-89 11-40 4-31 2h-57l-31-3-29-5-29-8-25-10-29-14-22-12-28-16-26-16-17-11-24-16-20-14-19-14-14-11-17-14-10-9-8-7-9-8-3-4z" fill="#000003"/>
<path transform="translate(426,864)" d="m0 0 7 4 57 42 18 13 14 10 34 24 20 14 33 22 22 14 22 13 24 13 23 10 30 10 26 5 17 2 16 1h70l34-2 47-5 82-11 96-14 101-16 78-13 101-18 83-16 61-13 40-10 21-7h3l-1 3-10 5-31 9-47 11-63 13-62 12-95 17-102 17-84 13-75 11-75 10-52 6-48 4-19 1h-43l-34-3-28-5-25-7-24-9-29-14-18-10-21-13-39-26-23-16-17-12-28-20-18-13-19-14-21-16-12-9-10-8-7-6z" fill="#000003"/>
<path transform="translate(1219,1220)" d="m0 0 7 1 1 12v100l-2 10-3 4h-6l-5-5-5 1-11 7-11 4h-10l-10-4-8-8-4-8-2-7v-17l3-12 5-10 9-10 11-7 10-4h16l5 1v-31l1-11 5-5zm-30 62-7 3-6 5-7 14-1 5v17l3 6 6 5 3 1h8l10-4 9-8 2-4v-35l-1-4-9-1z" fill="#000001"/>
<path transform="translate(1026,1248)" d="m0 0h7l3 3v47l1 20 1 2 8-7 14-15 7-8 9-7 2-1h8l2 1v6l-11 14-8 8-7 8-5 5 1 4 31 29 4 5-1 3-6 2h-10l-10-8-13-12-13-10-3-1-2 35-5 5h-13v-96l1-24 2-5 2-2z" fill="#000001"/>
<path transform="translate(1289,1252)" d="m0 0h10l8 2 9 5 6 9 3 9v22l-4 13-6 9-5 6-10 7-9 3-5 1h-11l-11-2-6-4-8-9-4-10-1-7 1-16 3-10 6-10 10-10 8-5 7-2zm-4 15-12 6-7 8-2 9v18l2 8 6 5 8 3 10-1 10-6 6-10 2-7 1-12-2-11-3-6-6-4z" fill="#000102"/>
<path transform="translate(1381,1238)" d="m0 0h13l9 2 6 4 8 9 4 11v16l-3 14-5 10-8 9-11 7-9 3h-19l-10-3-6-4-6-9-2-7-1-14 2-17 5-10 11-12 10-6zm1 14-10 4-8 7-5 10-1 4v16l4 10 7 6 3 1h8l8-3 10-9 4-9 1-4v-19l-3-6-7-6-5-2z" fill="#000001"/>
<path transform="translate(1114,1279)" d="m0 0h14l1 5v70l-2 6-5 2h-11v-50l1-29z" fill="#000209"/>
<path transform="translate(673,1080)" d="m0 0 2 2 2 9v56l-2 10-2-4-2-13-1-12v-31z"/>
<path transform="translate(1121,1240)" d="m0 0 6 1 4 6v9l-5 5-8 1-6-3-2-4v-7l7-6z" fill="#000002"/>
<path transform="translate(890,622)" d="m0 0h15l5 2 1 1v5l-3 3-4 1h-15l-9-3-2-2 1-4 5-2z" fill="#000003"/>
<path transform="translate(1008,608)" d="m0 0h13l7 2 1 5-6 4-4 1h-13l-9-3-1-5 6-3z" fill="#000003"/>
<path transform="translate(1158,628)" d="m0 0h14l7 1 2 2-1 5-7 3-5 1h-9l-9-3-2-2 1-5z" fill="#000104"/>
<path transform="translate(966,634)" d="m0 0h17l5 2 2 4-3 3-12 3-12-1-6-3v-4l4-3z" fill="#040508"/>
<path transform="translate(1275,674)" d="m0 0 10 1 9 3 1 4-4 3-6 1h-17l-6-2-1-3 4-4z" fill="#000003"/>
<path transform="translate(1111,654)" d="m0 0h16l5 2 1 5-5 3-13 2-12-2-3-2 1-4 4-3z" fill="#000107"/>
<path transform="translate(933,599)" d="m0 0h17l9 3-1 5-6 3h-15l-10-2v-6z" fill="#010308"/>
<path transform="translate(1185,666)" d="m0 0h14l7 2 1 5-5 3-4 1h-14l-9-3-1-4 5-3z" fill="#000002"/>
<path transform="translate(1237,640)" d="m0 0h11l9 3 2 2v3l-9 3h-16l-8-3 1-5z" fill="#000103"/>
<path transform="translate(1078,618)" d="m0 0h18l7 3-1 5-6 2h-19l-6-2-1-4 4-3z" fill="#000102"/>
<path transform="translate(1040,644)" d="m0 0h11l9 1 2 1v6l-2 1-9 1h-13l-7-2v-4l4-3z" fill="#00020A"/>
</svg>
